HIERARCHY
ROOT Hips
{
	OFFSET 0.000000 95.729000 0.000000
	CHANNELS 6 Xposition Yposition Zposition Yrotation Xrotation Zrotation
	JOINT RightUpLeg
	{
		OFFSET -9.625000 -1.639000 0.000000
		CHANNELS 3 Yrotation Xrotation Zrotation
		JOINT RightLeg
		{
			OFFSET 0.000000 -41.481000 0.000000
			CHANNELS 3 Yrotation Xrotation Zrotation
			JOINT RightFoot
			{
				OFFSET 0.000000 -43.120000 0.000000
				CHANNELS 3 Yrotation Xrotation Zrotation
				End Site
				{
					OFFSET 0.000000 -7.850000 17.850000
				}
			}
		}
	}
	JOINT LeftUpLeg
	{
		OFFSET 9.625000 -1.639000 0.000000
		CHANNELS 3 Yrotation Xrotation Zrotation
		JOINT LeftLeg
		{
			OFFSET 0.000000 -43.120000 0.000000
			CHANNELS 3 Yrotation Xrotation Zrotation
			JOINT LeftFoot
			{
				OFFSET 0.000000 -43.120000 0.000000
				CHANNELS 3 Yrotation Xrotation Zrotation
				End Site
				{
					OFFSET 0.000000 -7.850000 17.850000
				}
			}
		}
	}
	JOINT Spine
	{
		OFFSET 0.000000 16.395000 0.000000
		CHANNELS 3 Yrotation Xrotation Zrotation
		JOINT Spine1
		{
			OFFSET 0.000000 10.023000 0.000000
			CHANNELS 3 Yrotation Xrotation Zrotation
			JOINT Spine2
			{
				OFFSET 0.000000 10.437000 0.000000
				CHANNELS 3 Yrotation Xrotation Zrotation
				JOINT Spine3
				{
					OFFSET 0.000000 10.023000 0.000000
					CHANNELS 3 Yrotation Xrotation Zrotation
					JOINT Neck
					{
						OFFSET 0.000000 10.713000 0.000000
						CHANNELS 3 Yrotation Xrotation Zrotation
						JOINT Head
						{
							OFFSET 0.000000 9.720000 0.000000
							CHANNELS 3 Yrotation Xrotation Zrotation
							End Site
							{
								OFFSET 0.000000 16.450000 0.000000
							}
						}
					}
					JOINT RightShoulder
					{
						OFFSET -3.275000 7.142000 0.000000
						CHANNELS 3 Yrotation Xrotation Zrotation
						JOINT RightArm
						{
							OFFSET -13.100000 0.000000 0.000000
							CHANNELS 3 Yrotation Xrotation Zrotation
							JOINT RightForeArm
							{
								OFFSET -27.250000 0.000000 0.000000
								CHANNELS 3 Yrotation Xrotation Zrotation
								JOINT RightHand
								{
									OFFSET -26.750000 0.000000 0.000000
									CHANNELS 3 Yrotation Xrotation Zrotation
									End Site
									{
										OFFSET -3.479000 0.532000 0.778000
									}
								}
							}
						}
					}
					JOINT LeftShoulder
					{
						OFFSET 3.275000 7.142000 0.000000
						CHANNELS 3 Yrotation Xrotation Zrotation
						JOINT LeftArm
						{
							OFFSET 13.100000 0.000000 0.000000
							CHANNELS 3 Yrotation Xrotation Zrotation
							JOINT LeftForeArm
							{
								OFFSET 27.250000 0.000000 0.000000
								CHANNELS 3 Yrotation Xrotation Zrotation
								JOINT LeftHand
								{
									OFFSET 26.750000 0.000000 0.000000
									CHANNELS 3 Yrotation Xrotation Zrotation
									End Site
									{
										OFFSET 3.479000 0.532000 0.778000
									}
								}
							}
						}
					}
				}
			}
		}
	}
}
MOTION
Frames: 15
Frame Time: 0.010000
31.71 94.58 25.58 -145.94 -0.8 0.71 10.92 -13.29 -0.2 0.0 28.04 0.0 -17.42 -14.14 3.84 13.54 -13.41 9.44 -0.0 20.94 -0.0 4.34 -12.37 -2.68 -1.43 1.59 1.15 -0.35 0.4 0.29 -0.58 0.67 0.48 -0.44 0.33 0.19 -0.44 0.33 0.19 -7.68 6.27 2.98 16.08 -8.88 -4.13 6.31 -59.36 43.76 91.33 41.76 -5.66 -18.85 32.4 -34.56 3.9 -0.69 -7.81 -18.74 2.96 -65.9 -12.76 21.44 -2.89 10.36 29.43 23.33
31.56 94.55 25.71 -145.72 -0.7 0.74 10.47 -13.45 -0.39 -0.0 28.25 0.0 -17.18 -14.26 4.01 13.29 -13.67 9.26 0.0 21.15 0.0 3.97 -11.98 -2.57 -1.56 1.53 1.14 -0.39 0.38 0.29 -0.64 0.64 0.48 -0.43 0.33 0.18 -0.43 0.33 0.18 -7.38 6.33 2.96 16.03 -9.12 -3.94 6.89 -59.15 43.61 91.33 42.74 -5.85 -18.9 32.31 -34.35 4.2 -0.67 -7.82 -19.03 2.99 -65.93 -12.99 21.39 -2.9 10.48 29.42 23.47
31.42 94.56 25.86 -145.72 -0.7 0.74 10.36 -13.46 -0.57 0.0 28.26 -0.0 -17.19 -14.24 4.41 13.51 -13.75 9.11 -0.0 21.2 -0.0 3.75 -11.73 -2.47 -0.97 1.66 1.15 -0.24 0.42 0.29 -0.4 0.69 0.48 -0.46 0.32 0.19 -0.46 0.32 0.19 -7.92 6.17 2.98 15.24 -10.33 -3.15 8.39 -58.13 42.42 91.34 43.97 -6.06 -18.96 32.26 -34.1 3.61 -0.85 -7.83 -19.33 3.0 -65.95 -13.26 21.34 -2.91 10.61 29.42 23.62
31.18 94.57 26.12 -144.7 -0.48 0.9 9.36 -13.6 -1.02 -0.0 28.36 -0.0 -17.19 -14.33 4.79 12.87 -14.07 8.62 0.0 21.13 -0.0 3.65 -11.25 -2.34 -1.43 1.56 1.06 -0.36 0.39 0.27 -0.59 0.65 0.45 -0.44 0.33 0.18 -0.44 0.33 0.18 -7.65 6.21 2.91 15.36 -11.02 -2.6 9.3 -57.46 41.48 91.74 45.12 -6.15 -18.96 32.93 -33.85 3.83 -0.87 -7.87 -19.77 3.04 -65.96 -13.44 21.34 -2.9 10.62 29.38 23.8
30.97 94.58 26.35 -144.19 -0.47 0.96 8.87 -13.58 -1.31 -0.0 28.38 -0.0 -17.19 -14.33 5.08 12.9 -14.24 8.32 0.0 21.17 -0.0 3.33 -10.95 -2.24 -1.34 1.65 1.03 -0.33 0.41 0.26 -0.55 0.69 0.43 -0.45 0.32 0.18 -0.45 0.33 0.18 -7.83 6.2 2.87 15.17 -11.6 -2.28 11.03 -56.99 40.78 91.38 46.78 -6.6 -19.04 33.1 -33.44 3.56 -0.99 -7.9 -20.14 3.06 -65.97 -13.8 21.3 -2.96 10.82 29.44 23.9
30.74 94.58 26.6 -143.65 -0.46 1.04 8.44 -13.54 -1.64 0.0 28.4 0.0 -17.25 -14.32 5.39 12.83 -14.38 7.98 -0.0 21.2 -0.0 3.08 -10.66 -2.17 -1.58 1.65 0.99 -0.39 0.41 0.25 -0.65 0.69 0.42 -0.43 0.34 0.17 -0.43 0.34 0.17 -7.45 6.42 2.78 15.18 -11.76 -2.19 12.41 -56.76 40.33 91.4 47.9 -6.83 -19.27 33.29 -32.95 3.79 -0.95 -7.9 -20.53 3.02 -66.03 -13.96 21.32 -2.95 10.89 29.45 23.98
30.38 94.6 26.98 -142.85 -0.5 1.16 7.9 -13.4 -2.13 0.0 28.39 0.0 -17.42 -14.29 5.83 12.74 -14.49 7.49 -0.0 21.22 -0.0 2.78 -10.3 -2.09 -1.66 1.72 0.9 -0.41 0.43 0.23 -0.68 0.72 0.38 -0.42 0.36 0.17 -0.41 0.36 0.17 -7.19 6.69 2.68 15.9 -12.53 -1.74 14.33 -55.76 38.74 91.37 49.42 -7.12 -19.84 33.65 -32.08 3.77 -1.02 -7.85 -21.08 2.97 -66.13 -14.11 21.37 -2.93 11.0 29.44 24.09
30.06 94.61 27.3 -142.27 -0.53 1.28 7.51 -13.3 -2.56 -0.0 28.4 -0.0 -17.52 -14.27 6.2 12.74 -14.57 7.06 0.0 21.26 0.0 2.56 -10.02 -2.06 -1.45 1.78 0.81 -0.36 0.44 0.21 -0.6 0.74 0.34 -0.42 0.37 0.17 -0.42 0.37 0.17 -7.31 6.89 2.6 15.85 -12.86 -1.63 14.48 -55.42 38.21 92.72 49.69 -6.26 -20.87 34.02 -31.76 3.34 -1.08 -7.78 -21.43 2.93 -66.18 -14.22 21.39 -2.89 11.08 29.45 24.17
29.73 94.63 27.65 -141.72 -0.56 1.44 7.18 -13.19 -3.06 -0.0 28.38 -0.0 -17.61 -14.24 6.55 12.7 -14.56 6.56 0.0 21.18 0.0 2.45 -9.71 -2.09 -1.42 1.81 0.69 -0.35 0.45 0.18 -0.59 0.75 0.29 -0.4 0.39 0.16 -0.4 0.39 0.16 -7.0 7.19 2.45 16.29 -13.05 -1.64 17.75 -54.82 36.82 91.32 51.66 -7.31 -21.29 34.37 -30.23 2.91 -1.13 -7.69 -21.35 2.87 -66.2 -14.39 21.4 -2.87 11.21 29.46 24.28
29.21 94.65 28.17 -141.03 -0.7 1.74 6.83 -12.98 -3.86 -0.0 28.43 0.0 -17.78 -14.19 7.07 12.56 -14.41 5.79 -0.0 21.12 -0.0 2.24 -9.34 -2.12 -1.3 1.87 0.43 -0.32 0.47 0.11 -0.54 0.78 0.19 -0.41 0.4 0.16 -0.41 0.4 0.16 -7.17 7.41 2.43 16.97 -13.26 -1.63 20.31 -54.04 35.4 91.09 53.17 -7.53 -21.86 34.86 -28.98 3.27 -1.09 -7.59 -22.12 2.74 -66.18 -14.52 21.41 -2.86 11.37 29.47 24.42
28.77 94.66 28.6 -140.52 -0.8 1.97 6.58 -12.8 -4.51 0.0 28.45 0.0 -17.88 -14.16 7.38 12.28 -14.28 5.16 -0.0 21.07 0.0 1.94 -9.08 -2.12 -1.3 1.92 0.24 -0.32 0.48 0.06 -0.54 0.8 0.11 -0.4 0.41 0.15 -0.4 0.41 0.15 -6.93 7.65 2.36 16.87 -13.35 -1.58 22.95 -53.61 34.6 90.9 54.26 -7.55 -22.51 35.25 -28.2 3.45 -1.13 -7.53 -22.41 2.61 -66.17 -14.52 21.4 -2.86 11.5 29.49 24.52
28.13 94.66 29.24 -139.81 -0.91 2.28 6.49 -12.56 -5.45 -0.0 28.46 0.0 -18.29 -14.09 8.0 11.83 -14.16 4.26 0.0 21.07 0.0 1.45 -8.72 -2.11 -1.42 1.96 -0.0 -0.35 0.49 0.0 -0.59 0.81 0.0 -0.26 0.47 0.12 -0.26 0.47 0.12 -4.39 8.58 1.8 19.08 -13.78 -1.85 24.55 -52.63 33.36 90.51 55.45 -7.56 -23.4 35.8 -26.86 3.28 -1.22 -7.38 -22.37 2.42 -66.18 -14.46 21.17 -2.8 11.63 29.5 24.66
27.58 94.69 29.75 -139.28 -1.04 2.52 6.34 -12.22 -6.18 -0.0 28.27 -0.0 -18.49 -13.94 8.38 11.63 -13.96 3.51 0.0 21.03 -0.0 1.19 -8.67 -1.74 -0.74 1.91 -0.3 -0.19 0.48 -0.07 -0.31 0.79 -0.12 -0.25 0.5 0.12 -0.25 0.5 0.12 -4.25 9.14 1.86 18.94 -13.97 -1.7 26.28 -51.99 32.56 90.28 56.15 -7.43 -23.82 36.0 -26.03 2.96 -1.24 -7.03 -23.29 2.5 -66.31 -14.43 20.94 -2.76 11.74 29.5 24.75
26.97 94.65 30.28 -138.71 -1.15 2.76 6.19 -12.04 -6.95 0.0 28.4 -0.0 -18.7 -13.94 8.77 11.18 -13.97 2.8 -0.0 21.29 0.0 0.8 -8.27 -2.1 -0.52 1.88 -0.53 -0.13 0.47 -0.13 -0.22 0.78 -0.22 -0.21 0.53 0.11 -0.21 0.53 0.11 -3.42 9.59 1.8 19.53 -14.18 -1.66 26.83 -51.52 32.18 91.35 56.31 -6.25 -24.32 36.26 -25.39 2.83 -1.27 -6.81 -23.04 2.11 -66.35 -14.37 21.45 -2.95 11.73 29.99 24.78
26.08 94.62 31.06 -137.9 -1.27 3.11 6.06 -11.71 -8.08 -0.0 28.39 -0.0 -19.06 -13.81 9.18 10.88 -13.78 1.67 0.0 21.28 -0.0 0.28 -7.9 -2.0 -0.24 1.81 -0.88 -0.06 0.45 -0.22 -0.11 0.75 -0.37 -0.15 0.56 0.11 -0.15 0.56 0.11 -2.35 10.09 1.76 20.44 -14.4 -1.65 29.97 -50.88 31.19 90.21 57.86 -6.24 -25.3 36.9 -24.45 2.39 -1.23 -6.48 -23.01 1.78 -66.43 -14.21 21.47 -2.96 11.93 29.85 24.94
